<?xml version="1.0" encoding="UTF-8" standalone="no"?>
<!-- Created with Inkscape (http://www.inkscape.org/) -->

<svg
   xmlns:dc="http://purl.org/dc/elements/1.1/"
   xmlns:cc="http://creativecommons.org/ns#"
   xmlns:rdf="http://www.w3.org/1999/02/22-rdf-syntax-ns#"
   xmlns:svg="http://www.w3.org/2000/svg"
   xmlns="http://www.w3.org/2000/svg"
   xmlns:sodipodi="http://sodipodi.sourceforge.net/DTD/sodipodi-0.dtd"
   xmlns:inkscape="http://www.inkscape.org/namespaces/inkscape"
   width="256"
   height="256"
   viewBox="0 0 67.733332 67.733335"
   version="1.1"
   id="svg4561"
   inkscape:version="0.92.3 (2405546, 2018-03-11)"
   sodipodi:docname="logo.svg">
  <defs
     id="defs4555" />
  <sodipodi:namedview
     id="base"
     pagecolor="#ffffff"
     bordercolor="#666666"
     borderopacity="1.0"
     inkscape:pageopacity="0.0"
     inkscape:pageshadow="2"
     inkscape:zoom="2.5"
     inkscape:cx="172.46061"
     inkscape:cy="129.11775"
     inkscape:document-units="mm"
     inkscape:current-layer="layer4"
     showgrid="true"
     inkscape:measure-start="250,45"
     inkscape:measure-end="170,45"
     units="px"
     inkscape:window-width="1440"
     inkscape:window-height="837"
     inkscape:window-x="-8"
     inkscape:window-y="-8"
     inkscape:window-maximized="1"
     inkscape:snap-global="true">
    <inkscape:grid
       type="xygrid"
       id="grid4563" />
  </sodipodi:namedview>
  <metadata
     id="metadata4558">
    <rdf:RDF>
      <cc:Work
         rdf:about="">
        <dc:format>image/svg+xml</dc:format>
        <dc:type
           rdf:resource="http://purl.org/dc/dcmitype/StillImage" />
        <dc:title></dc:title>
      </cc:Work>
    </rdf:RDF>
  </metadata>
  <g
     inkscape:label="Livello 1"
     inkscape:groupmode="layer"
     id="layer1"
     transform="translate(0,-229.26664)" />
  <g
     inkscape:groupmode="layer"
     id="layer3"
     inkscape:label="Livello 2"
     style="display:inline" />
  <g
     inkscape:groupmode="layer"
     id="layer4"
     inkscape:label="Livello 3"
     style="display:inline">
    <path
       style="fill:#f2f2f2;stroke-width:0.13117178"
       d="m 33.734375,2.9104167 c -17.163511,0 -31.0885417,4.0733012 -31.0885417,9.0676923 v 5.667308 c 0,4.994393 13.9250307,9.067692 31.0885417,9.067692 17.163511,0 31.088542,-4.073299 31.088542,-9.067692 v -5.667308 c 0,-4.9943911 -13.925031,-9.0676923 -31.088542,-9.0676923 z M 2.6458333,24.72982 v 12.751175 c 0,4.360177 10.6139057,8.018215 24.7294227,8.876992 h 2.904836 V 35.761465 c 0,-0.838872 0.699836,-1.513254 1.569541,-1.513254 h 5.23108 c 0.869705,0 1.569537,0.674382 1.569537,1.513254 v 10.596522 h 1.443243 C 54.209013,45.49921 64.822917,41.841172 64.822917,37.480995 V 24.72982 c -6.679317,4.108852 -18.904056,6.021314 -31.088542,6.021314 -12.184485,0 -24.4093622,-1.912462 -31.0885417,-6.021314 z m 0,19.835578 v 12.751711 c 0,3.290959 6.0474771,6.181111 15.0822607,7.770391 -8.14e-4,-0.02013 -0.0033,-0.03985 -0.0033,-0.06017 v -7.063991 c 0,-0.83887 0.699831,-1.513789 1.56954,-1.513789 h 9.592648 l 3.204389,3.090428 c 1.314368,1.267761 3.433107,1.267761 4.74748,0 l 3.204387,-3.090428 h 9.592649 c 0.869705,0 1.56954,0.674919 1.56954,1.513789 v 6.85019 c 8.21754,-1.63465 13.617428,-4.386672 13.617428,-7.496425 V 44.565393 c -4.85501,2.98661 -12.643938,4.807586 -21.213611,5.582433 l -8.248179,7.960554 c -0.490434,0.473045 -1.294993,0.473045 -1.785433,0 l -8.12185,-7.828939 C 16.260976,49.594143 7.8004067,47.736352 2.6458333,44.565398 Z M 41.788788,62.252233 c -0.719306,0 -1.307768,0.568046 -1.307768,1.261849 0,0.693802 0.588462,1.261312 1.307768,1.261312 0.719307,0 1.308312,-0.56751 1.308312,-1.261312 0,-0.693803 -0.589005,-1.261849 -1.308312,-1.261849 z m 4.185083,0 c -0.719312,0 -1.307772,0.568046 -1.307772,1.261849 0,0.693802 0.58846,1.261312 1.307772,1.261312 0.719302,0 1.307769,-0.56751 1.307769,-1.261312 0,-0.693803 -0.588467,-1.261849 -1.307769,-1.261849 z"
       id="path5156"
       inkscape:connector-curvature="0" />
  </g>
  <g
     inkscape:groupmode="layer"
     id="layer5"
     inkscape:label="Livello 4"
     style="display:inline" />
</svg>
